<svg width="100" height="100" viewBox="0 0 100 100" fill="none" xmlns="http://www.w3.org/2000/svg">
  <rect width="100" height="100" rx="20" fill="url(#paint0_linear_7_36)" />
  <path
    d="M23.6872 71.5V38.62H9.94719V29.5H47.7472V38.62H34.0072V71.5H23.6872ZM52.3081 71.5V29.5H73.1281C76.0081 29.5 78.5281 30 80.6881 31C82.8881 32 84.6081 33.4 85.8481 35.2C87.0881 36.96 87.7081 39 87.7081 41.32C87.7081 43.04 87.2681 44.66 86.3881 46.18C85.5481 47.66 84.3881 48.92 82.9081 49.96C84.7881 50.96 86.2681 52.26 87.3481 53.86C88.4681 55.46 89.0281 57.22 89.0281 59.14C89.0281 61.58 88.4081 63.74 87.1681 65.62C85.9281 67.46 84.1881 68.9 81.9481 69.94C79.7081 70.98 77.1081 71.5 74.1481 71.5H52.3081ZM62.6281 46.24H72.4681C73.9881 46.24 75.1881 45.86 76.0681 45.1C76.9481 44.34 77.3881 43.34 77.3881 42.1C77.3881 40.82 76.9481 39.82 76.0681 39.1C75.1881 38.34 73.9881 37.96 72.4681 37.96H62.6281V46.24ZM62.6281 63.04H73.3681C74.9681 63.04 76.2281 62.64 77.1481 61.84C78.1081 61.04 78.5881 59.96 78.5881 58.6C78.5881 57.24 78.1081 56.16 77.1481 55.36C76.2281 54.56 74.9681 54.16 73.3681 54.16H62.6281V63.04Z"
    fill="black"
  />
  <defs>
    <linearGradient
      id="paint0_linear_7_36"
      x1="1.49901e-05"
      y1="1.49901e-05"
      x2="120.119"
      y2="40.8739"
      gradientUnits="userSpaceOnUse"
    >
      <stop stop-color="#FFE000" />
      <stop offset="1" stop-color="#FFA000" />
    </linearGradient>
  </defs>
</svg>
